<?xml version="1.0" encoding="UTF-8"?>
<svg version="1.1" xmlns="http://www.w3.org/2000/svg" width="32" height="32">
<path d="M0 0 C1.02480469 0.05285156 2.04960937 0.10570313 3.10546875 0.16015625 C6.69958796 1.19223377 7.02242147 2.76746876 8.8125 5.9375 C10.4625 6.5975 12.1125 7.2575 13.8125 7.9375 C13.8125 12.2275 13.8125 16.5175 13.8125 20.9375 C12.4925 20.9375 11.1725 20.9375 9.8125 20.9375 C9.709375 21.88625 9.60625 22.835 9.5 23.8125 C8.8125 26.9375 8.8125 26.9375 5.8125 28.9375 C2.89970626 29.10631614 0.09615876 29.17059779 -2.8125 29.125 C-3.99585938 29.1240332 -3.99585938 29.1240332 -5.203125 29.12304688 C-11.0471388 29.0778612 -11.0471388 29.0778612 -12.1875 27.9375 C-12.27498207 26.01082493 -12.29447334 24.08098139 -12.28515625 22.15234375 C-12.28193359 20.98251953 -12.27871094 19.81269531 -12.27539062 18.60742188 C-12.26701172 17.37572266 -12.25863281 16.14402344 -12.25 14.875 C-12.24548828 13.63943359 -12.24097656 12.40386719 -12.23632812 11.13085938 C-12.22449608 8.06635883 -12.20801173 5.00195279 -12.1875 1.9375 C-7.8527214 0.40733409 -4.61095117 -0.32142245 0 0 Z M-10.1875 2.9375 C-10.1875 5.5775 -10.1875 8.2175 -10.1875 10.9375 C-9.8575 10.9375 -9.5275 10.9375 -9.1875 10.9375 C-8.8575 8.2975 -8.5275 5.6575 -8.1875 2.9375 C-8.8475 2.9375 -9.5075 2.9375 -10.1875 2.9375 Z M10.8125 9.9375 C9.90191469 13.01072544 9.72363816 15.73847361 9.8125 18.9375 C10.4725 18.9375 11.1325 18.9375 11.8125 18.9375 C11.8125 15.9675 11.8125 12.9975 11.8125 9.9375 C11.4825 9.9375 11.1525 9.9375 10.8125 9.9375 Z M-10.1875 22.9375 C-9.1875 26.9375 -9.1875 26.9375 -9.1875 26.9375 Z " fill="#FE9FC5" transform="translate(15.1875,1.0625)"/>
<path d="M0 0 C1.05960938 0.11085937 2.11921875 0.22171875 3.2109375 0.3359375 C4.00757812 0.43132813 4.80421875 0.52671875 5.625 0.625 C5.955 1.945 6.285 3.265 6.625 4.625 C5.820625 4.439375 5.01625 4.25375 4.1875 4.0625 C3.341875 3.918125 2.49625 3.77375 1.625 3.625 C1.295 3.955 0.965 4.285 0.625 4.625 C-1.70797433 4.66592937 -4.04205225 4.66741723 -6.375 4.625 C-6.375 3.965 -6.375 3.305 -6.375 2.625 C-7.695 2.625 -9.015 2.625 -10.375 2.625 C-10.375 10.545 -10.375 18.465 -10.375 26.625 C-5.425 26.625 -0.475 26.625 4.625 26.625 C4.625 25.305 4.625 23.985 4.625 22.625 C5.285 22.625 5.945 22.625 6.625 22.625 C6.295 24.605 5.965 26.585 5.625 28.625 C2.81243719 28.65184312 0.00012759 28.67176188 -2.8125 28.6875 C-3.61494141 28.69587891 -4.41738281 28.70425781 -5.24414062 28.71289062 C-7.28795221 28.7215143 -9.33183902 28.6772815 -11.375 28.625 C-12.375 27.625 -12.375 27.625 -12.48852539 25.12475586 C-12.48328857 24.04073486 -12.47805176 22.95671387 -12.47265625 21.83984375 C-12.46943359 20.67001953 -12.46621094 19.50019531 -12.46289062 18.29492188 C-12.45451172 17.06322266 -12.44613281 15.83152344 -12.4375 14.5625 C-12.43298828 13.32693359 -12.42847656 12.09136719 -12.42382812 10.81835938 C-12.41199608 7.75385883 -12.39551173 4.68945279 -12.375 1.625 C-7.8729408 0.0143732 -4.77490092 -0.53054455 0 0 Z " fill="#201419" transform="translate(15.375,1.375)"/>
<path d="M0 0 C0 4.29 0 8.58 0 13 C-8.49609375 13.09765625 -8.49609375 13.09765625 -11 13 C-12.74104353 11.25895647 -12.21311272 8.92635979 -12.25 6.5625 C-12.27578125 5.57378906 -12.3015625 4.58507812 -12.328125 3.56640625 C-12.21984375 2.71949219 -12.1115625 1.87257813 -12 1 C-7.66314105 -1.8912393 -5.07581238 -0.73562498 0 0 Z M-3 2 C-3.91058531 5.07322544 -4.08886184 7.80097361 -4 11 C-3.34 11 -2.68 11 -2 11 C-2 8.03 -2 5.06 -2 2 C-2.33 2 -2.66 2 -3 2 Z " fill="#010101" transform="translate(29,9)"/>
<path d="M0 0 C1.2065625 0.0309375 1.2065625 0.0309375 2.4375 0.0625 C4.27441257 3.84437881 4.59587626 6.00818308 3.4375 10.0625 C1.1275 10.0625 -1.1825 10.0625 -3.5625 10.0625 C-3.58939216 8.58343108 -3.60884621 7.10422517 -3.625 5.625 C-3.63660156 4.80128906 -3.64820312 3.97757813 -3.66015625 3.12890625 C-3.51340586 0.02366796 -3.12550237 0.07623177 0 0 Z " fill="#D384A3" transform="translate(21.5625,9.9375)"/>
<path d="M0 0 C3.96 0.33 7.92 0.66 12 1 C12.33 2.32 12.66 3.64 13 5 C12.195625 4.814375 11.39125 4.62875 10.5625 4.4375 C9.716875 4.293125 8.87125 4.14875 8 4 C7.67 4.33 7.34 4.66 7 5 C4.66702567 5.04092937 2.33294775 5.04241723 0 5 C0 3.35 0 1.7 0 0 Z " fill="#563544" transform="translate(9,1)"/>
<path d="M0 0 C0 0.99 0 1.98 0 3 C-0.99 3 -1.98 3 -3 3 C-3.33 5.97 -3.66 8.94 -4 12 C-1.69 12 0.62 12 3 12 C2.67 12.66 2.34 13.32 2 14 C0.00045254 14.04254356 -2.00041636 14.04080783 -4 14 C-5.74104353 12.25895647 -5.21311272 9.92635979 -5.25 7.5625 C-5.27578125 6.57378906 -5.3015625 5.58507812 -5.328125 4.56640625 C-5.21984375 3.71949219 -5.1115625 2.87257813 -5 2 C-2 0 -2 0 0 0 Z " fill="#4B2F3A" transform="translate(22,8)"/>
<path d="M0 0 C1.2065625 0.0309375 1.2065625 0.0309375 2.4375 0.0625 C3.0975 1.7125 3.7575 3.3625 4.4375 5.0625 C2.7875 5.0625 1.1375 5.0625 -0.5625 5.0625 C-0.5625 4.0725 -0.5625 3.0825 -0.5625 2.0625 C-1.2225 2.0625 -1.8825 2.0625 -2.5625 2.0625 C-2.5625 4.7025 -2.5625 7.3425 -2.5625 10.0625 C-2.8925 10.0625 -3.2225 10.0625 -3.5625 10.0625 C-3.58939216 8.58343108 -3.60884621 7.10422517 -3.625 5.625 C-3.63660156 4.80128906 -3.64820312 3.97757813 -3.66015625 3.12890625 C-3.51340586 0.02366796 -3.12550237 0.07623177 0 0 Z " fill="#AC6C85" transform="translate(21.5625,9.9375)"/>
</svg>
